<mxfile host="app.diagrams.net" agent="Mozilla/5.0 (Windows NT 10.0; Win64; x64; rv:137.0) Gecko/20100101 Firefox/137.0" version="26.2.14">
  <diagram name="Page-1" id="ZfCJOVdXx-dnJl77oggn">
    <mxGraphModel grid="1" page="1" gridSize="10" guides="1" tooltips="1" connect="1" arrows="1" fold="1" pageScale="1" pageWidth="850" pageHeight="1100" math="0" shadow="0">
      <root>
        <mxCell id="0" />
        <mxCell id="1" parent="0" />
        <mxCell id="N_dmbNP3DRAMQzcvsTmh-2" value="&lt;div&gt;Statistics&lt;/div&gt;&lt;div&gt;page&lt;/div&gt;" style="shape=umlBoundary;whiteSpace=wrap;html=1;" vertex="1" parent="1">
          <mxGeometry x="168.75" y="-100" width="100" height="80" as="geometry" />
        </mxCell>
        <mxCell id="N_dmbNP3DRAMQzcvsTmh-3" value="Personal statistics" style="ellipse;shape=umlEntity;whiteSpace=wrap;html=1;" vertex="1" parent="1">
          <mxGeometry x="631.25" y="-210" width="80" height="80" as="geometry" />
        </mxCell>
        <mxCell id="N_dmbNP3DRAMQzcvsTmh-8" value="&lt;div&gt;Player&lt;/div&gt;" style="shape=umlActor;verticalLabelPosition=bottom;verticalAlign=top;html=1;" vertex="1" parent="1">
          <mxGeometry x="-41.25" y="-70" width="30" height="60" as="geometry" />
        </mxCell>
        <mxCell id="N_dmbNP3DRAMQzcvsTmh-13" value="" style="endArrow=classic;html=1;rounded=0;exitX=0.5;exitY=1;exitDx=0;exitDy=0;" edge="1" parent="1" source="N_dmbNP3DRAMQzcvsTmh-3" target="N_dmbNP3DRAMQzcvsTmh-16">
          <mxGeometry width="50" height="50" relative="1" as="geometry">
            <mxPoint x="538.75" y="210" as="sourcePoint" />
            <mxPoint x="838.75" as="targetPoint" />
          </mxGeometry>
        </mxCell>
        <mxCell id="N_dmbNP3DRAMQzcvsTmh-16" value="Are scores found?" style="ellipse;shape=umlControl;whiteSpace=wrap;html=1;" vertex="1" parent="1">
          <mxGeometry x="601.25" y="-80" width="70" height="80" as="geometry" />
        </mxCell>
        <mxCell id="N_dmbNP3DRAMQzcvsTmh-19" value="" style="endArrow=classic;html=1;rounded=0;" edge="1" parent="1" source="N_dmbNP3DRAMQzcvsTmh-45" target="N_dmbNP3DRAMQzcvsTmh-29">
          <mxGeometry width="50" height="50" relative="1" as="geometry">
            <mxPoint x="431.26294043431835" y="43.59007539575191" as="sourcePoint" />
            <mxPoint x="588.75" y="130" as="targetPoint" />
          </mxGeometry>
        </mxCell>
        <mxCell id="N_dmbNP3DRAMQzcvsTmh-20" value="Hide expand button and display no scores found message" style="ellipse;shape=umlControl;whiteSpace=wrap;html=1;fillColor=#FF6666;" vertex="1" parent="1">
          <mxGeometry x="426.25" y="-220" width="120" height="140" as="geometry" />
        </mxCell>
        <mxCell id="N_dmbNP3DRAMQzcvsTmh-22" value="" style="endArrow=classic;html=1;rounded=0;" edge="1" parent="1" source="N_dmbNP3DRAMQzcvsTmh-16" target="N_dmbNP3DRAMQzcvsTmh-20">
          <mxGeometry width="50" height="50" relative="1" as="geometry">
            <mxPoint x="748.75" as="sourcePoint" />
            <mxPoint x="588.75" y="130" as="targetPoint" />
          </mxGeometry>
        </mxCell>
        <mxCell id="N_dmbNP3DRAMQzcvsTmh-23" value="No" style="edgeLabel;html=1;align=center;verticalAlign=middle;resizable=0;points=[];" connectable="0" vertex="1" parent="N_dmbNP3DRAMQzcvsTmh-22">
          <mxGeometry x="0.0619" relative="1" as="geometry">
            <mxPoint as="offset" />
          </mxGeometry>
        </mxCell>
        <mxCell id="N_dmbNP3DRAMQzcvsTmh-24" value="" style="endArrow=classic;html=1;rounded=0;" edge="1" parent="1" source="N_dmbNP3DRAMQzcvsTmh-20" target="N_dmbNP3DRAMQzcvsTmh-2">
          <mxGeometry width="50" height="50" relative="1" as="geometry">
            <mxPoint x="538.75" y="180" as="sourcePoint" />
            <mxPoint x="588.75" y="130" as="targetPoint" />
          </mxGeometry>
        </mxCell>
        <mxCell id="N_dmbNP3DRAMQzcvsTmh-29" value="&lt;div&gt;Shortened statistics&lt;/div&gt;&lt;div&gt;view&lt;/div&gt;" style="shape=umlBoundary;whiteSpace=wrap;html=1;" vertex="1" parent="1">
          <mxGeometry x="268.75" width="100" height="80" as="geometry" />
        </mxCell>
        <mxCell id="N_dmbNP3DRAMQzcvsTmh-30" value="" style="endArrow=classic;html=1;rounded=0;exitX=0.5;exitY=0.5;exitDx=0;exitDy=0;exitPerimeter=0;entryX=-0.03;entryY=0.513;entryDx=0;entryDy=0;entryPerimeter=0;" edge="1" parent="1" source="N_dmbNP3DRAMQzcvsTmh-8" target="N_dmbNP3DRAMQzcvsTmh-29">
          <mxGeometry width="50" height="50" relative="1" as="geometry">
            <mxPoint x="538.75" y="180" as="sourcePoint" />
            <mxPoint x="588.75" y="130" as="targetPoint" />
          </mxGeometry>
        </mxCell>
        <mxCell id="N_dmbNP3DRAMQzcvsTmh-31" value="Views" style="edgeLabel;html=1;align=center;verticalAlign=middle;resizable=0;points=[];" connectable="0" vertex="1" parent="N_dmbNP3DRAMQzcvsTmh-30">
          <mxGeometry x="0.0318" y="3" relative="1" as="geometry">
            <mxPoint as="offset" />
          </mxGeometry>
        </mxCell>
        <mxCell id="N_dmbNP3DRAMQzcvsTmh-32" value="" style="endArrow=classic;html=1;rounded=0;exitX=0.5;exitY=0.5;exitDx=0;exitDy=0;exitPerimeter=0;" edge="1" parent="1" source="N_dmbNP3DRAMQzcvsTmh-8" target="N_dmbNP3DRAMQzcvsTmh-2">
          <mxGeometry width="50" height="50" relative="1" as="geometry">
            <mxPoint x="538.75" y="180" as="sourcePoint" />
            <mxPoint x="588.75" y="130" as="targetPoint" />
          </mxGeometry>
        </mxCell>
        <mxCell id="N_dmbNP3DRAMQzcvsTmh-37" value="&lt;div&gt;Basic Course:&lt;/div&gt;&lt;div&gt;The system checks if the user is logged in.&lt;/div&gt;&lt;div&gt;The system displays the statistics page.&amp;nbsp;&lt;/div&gt;&lt;div&gt;The user selects the difficulty with the buttons near a specific game.&lt;/div&gt;&lt;div&gt;The system checks if personal statistics are available.&lt;/div&gt;&lt;div&gt;The system displays a shortened version of the statistics (amount of games played, highest score, average score) for that game filtered by the selected difficulty.&lt;/div&gt;&lt;div&gt;The user views the shortened game statistics.&lt;/div&gt;&lt;div&gt;&lt;br&gt;&lt;/div&gt;Alternate Course (No Scores Were Found):&lt;br&gt;&lt;div&gt;The system shows a message indicating that no scores were found.&lt;/div&gt;&lt;div&gt;&lt;br&gt;&lt;/div&gt;&lt;div&gt;&lt;div&gt;Alternate Course (User is not logged in):&lt;/div&gt;The system shows a create an account message.&lt;/div&gt;" style="shape=note;size=20;whiteSpace=wrap;html=1;fontFamily=Helvetica;fontSize=11;labelBackgroundColor=none;align=left;fillColor=#fff2cc;strokeColor=#d6b656;" vertex="1" parent="1">
          <mxGeometry x="-351.25" y="-180" width="240" height="270" as="geometry" />
        </mxCell>
        <mxCell id="N_dmbNP3DRAMQzcvsTmh-45" value="Display shortened user statistics for selected difficulty" style="ellipse;shape=umlControl;whiteSpace=wrap;html=1;" vertex="1" parent="1">
          <mxGeometry x="426.25" y="-30" width="110" height="130" as="geometry" />
        </mxCell>
        <mxCell id="N_dmbNP3DRAMQzcvsTmh-64" value="" style="endArrow=classic;html=1;rounded=0;" edge="1" parent="1" source="N_dmbNP3DRAMQzcvsTmh-2" target="N_dmbNP3DRAMQzcvsTmh-16">
          <mxGeometry width="50" height="50" relative="1" as="geometry">
            <mxPoint x="658.6471940149813" y="-31.284370150484392" as="sourcePoint" />
            <mxPoint x="359.13722764960994" y="-35.93361811720979" as="targetPoint" />
          </mxGeometry>
        </mxCell>
        <mxCell id="N_dmbNP3DRAMQzcvsTmh-260" value="Player selects difficulty" style="edgeLabel;html=1;align=center;verticalAlign=middle;resizable=0;points=[];" connectable="0" vertex="1" parent="N_dmbNP3DRAMQzcvsTmh-64">
          <mxGeometry x="-0.0785" y="1" relative="1" as="geometry">
            <mxPoint as="offset" />
          </mxGeometry>
        </mxCell>
        <mxCell id="N_dmbNP3DRAMQzcvsTmh-65" value="" style="endArrow=classic;html=1;rounded=0;" edge="1" parent="1" source="N_dmbNP3DRAMQzcvsTmh-16" target="N_dmbNP3DRAMQzcvsTmh-45">
          <mxGeometry width="50" height="50" relative="1" as="geometry">
            <mxPoint x="538.75" y="80" as="sourcePoint" />
            <mxPoint x="535.8436855659261" y="16.896911512641736" as="targetPoint" />
          </mxGeometry>
        </mxCell>
        <mxCell id="N_dmbNP3DRAMQzcvsTmh-67" value="Yes" style="edgeLabel;html=1;align=center;verticalAlign=middle;resizable=0;points=[];" connectable="0" vertex="1" parent="N_dmbNP3DRAMQzcvsTmh-65">
          <mxGeometry x="0.0717" y="3" relative="1" as="geometry">
            <mxPoint as="offset" />
          </mxGeometry>
        </mxCell>
        <mxCell id="N_dmbNP3DRAMQzcvsTmh-68" value="&lt;div&gt;Statistics&lt;/div&gt;&lt;div&gt;page&lt;/div&gt;" style="shape=umlBoundary;whiteSpace=wrap;html=1;" vertex="1" parent="1">
          <mxGeometry x="100" y="420" width="100" height="80" as="geometry" />
        </mxCell>
        <mxCell id="N_dmbNP3DRAMQzcvsTmh-69" value="Game History" style="ellipse;shape=umlEntity;whiteSpace=wrap;html=1;" vertex="1" parent="1">
          <mxGeometry x="600" y="300" width="80" height="80" as="geometry" />
        </mxCell>
        <mxCell id="N_dmbNP3DRAMQzcvsTmh-71" value="&lt;div&gt;Player&lt;/div&gt;" style="shape=umlActor;verticalLabelPosition=bottom;verticalAlign=top;html=1;" vertex="1" parent="1">
          <mxGeometry x="40" y="530" width="30" height="60" as="geometry" />
        </mxCell>
        <mxCell id="N_dmbNP3DRAMQzcvsTmh-73" value="" style="endArrow=classic;html=1;rounded=0;exitX=0.5;exitY=1;exitDx=0;exitDy=0;" edge="1" parent="1" source="N_dmbNP3DRAMQzcvsTmh-69" target="N_dmbNP3DRAMQzcvsTmh-74">
          <mxGeometry width="50" height="50" relative="1" as="geometry">
            <mxPoint x="452.5" y="730" as="sourcePoint" />
            <mxPoint x="752.5" y="520" as="targetPoint" />
          </mxGeometry>
        </mxCell>
        <mxCell id="N_dmbNP3DRAMQzcvsTmh-74" value="Are scores found?" style="ellipse;shape=umlControl;whiteSpace=wrap;html=1;" vertex="1" parent="1">
          <mxGeometry x="605" y="410" width="70" height="80" as="geometry" />
        </mxCell>
        <mxCell id="N_dmbNP3DRAMQzcvsTmh-75" value="" style="endArrow=classic;html=1;rounded=0;" edge="1" parent="1" source="N_dmbNP3DRAMQzcvsTmh-86" target="N_dmbNP3DRAMQzcvsTmh-80">
          <mxGeometry width="50" height="50" relative="1" as="geometry">
            <mxPoint x="442.5080682862922" y="613.8183285142961" as="sourcePoint" />
            <mxPoint x="502.5" y="650" as="targetPoint" />
          </mxGeometry>
        </mxCell>
        <mxCell id="N_dmbNP3DRAMQzcvsTmh-76" value="Hide expand button and display no scores found message" style="ellipse;shape=umlControl;whiteSpace=wrap;html=1;fillColor=#FF6666;" vertex="1" parent="1">
          <mxGeometry x="360" y="230" width="120" height="140" as="geometry" />
        </mxCell>
        <mxCell id="N_dmbNP3DRAMQzcvsTmh-77" value="" style="endArrow=classic;html=1;rounded=0;" edge="1" parent="1" source="N_dmbNP3DRAMQzcvsTmh-74" target="N_dmbNP3DRAMQzcvsTmh-76">
          <mxGeometry width="50" height="50" relative="1" as="geometry">
            <mxPoint x="662.5" y="520" as="sourcePoint" />
            <mxPoint x="502.5" y="650" as="targetPoint" />
          </mxGeometry>
        </mxCell>
        <mxCell id="N_dmbNP3DRAMQzcvsTmh-78" value="No" style="edgeLabel;html=1;align=center;verticalAlign=middle;resizable=0;points=[];" connectable="0" vertex="1" parent="N_dmbNP3DRAMQzcvsTmh-77">
          <mxGeometry x="0.0619" relative="1" as="geometry">
            <mxPoint as="offset" />
          </mxGeometry>
        </mxCell>
        <mxCell id="N_dmbNP3DRAMQzcvsTmh-79" value="" style="endArrow=classic;html=1;rounded=0;" edge="1" parent="1" source="N_dmbNP3DRAMQzcvsTmh-76" target="N_dmbNP3DRAMQzcvsTmh-68">
          <mxGeometry width="50" height="50" relative="1" as="geometry">
            <mxPoint x="452.5" y="700" as="sourcePoint" />
            <mxPoint x="502.5" y="650" as="targetPoint" />
          </mxGeometry>
        </mxCell>
        <mxCell id="N_dmbNP3DRAMQzcvsTmh-80" value="Scores List view" style="shape=umlBoundary;whiteSpace=wrap;html=1;" vertex="1" parent="1">
          <mxGeometry x="180" y="595" width="100" height="80" as="geometry" />
        </mxCell>
        <mxCell id="N_dmbNP3DRAMQzcvsTmh-81" value="" style="endArrow=classic;html=1;rounded=0;exitX=0.5;exitY=0.5;exitDx=0;exitDy=0;exitPerimeter=0;entryX=-0.03;entryY=0.513;entryDx=0;entryDy=0;entryPerimeter=0;" edge="1" parent="1" source="N_dmbNP3DRAMQzcvsTmh-71" target="N_dmbNP3DRAMQzcvsTmh-80">
          <mxGeometry width="50" height="50" relative="1" as="geometry">
            <mxPoint x="452.5" y="700" as="sourcePoint" />
            <mxPoint x="502.5" y="650" as="targetPoint" />
          </mxGeometry>
        </mxCell>
        <mxCell id="N_dmbNP3DRAMQzcvsTmh-82" value="Views" style="edgeLabel;html=1;align=center;verticalAlign=middle;resizable=0;points=[];" connectable="0" vertex="1" parent="N_dmbNP3DRAMQzcvsTmh-81">
          <mxGeometry x="0.0318" y="3" relative="1" as="geometry">
            <mxPoint as="offset" />
          </mxGeometry>
        </mxCell>
        <mxCell id="N_dmbNP3DRAMQzcvsTmh-83" value="" style="endArrow=classic;html=1;rounded=0;exitX=0.5;exitY=0.5;exitDx=0;exitDy=0;exitPerimeter=0;" edge="1" parent="1" source="N_dmbNP3DRAMQzcvsTmh-71" target="N_dmbNP3DRAMQzcvsTmh-68">
          <mxGeometry width="50" height="50" relative="1" as="geometry">
            <mxPoint x="452.5" y="700" as="sourcePoint" />
            <mxPoint x="502.5" y="650" as="targetPoint" />
          </mxGeometry>
        </mxCell>
        <mxCell id="N_dmbNP3DRAMQzcvsTmh-85" value="&lt;div&gt;Basic Course:&lt;/div&gt;&lt;div&gt;The system checks if the user is logged in.&lt;/div&gt;The system displays the statistics page.&lt;br&gt;&lt;div&gt;The user clicks the expand button.&lt;/div&gt;&lt;div&gt;The system displays the expanded statistics page.&lt;/div&gt;&lt;div&gt;The user clicks the &quot;last games&quot; button.&lt;/div&gt;&lt;div&gt;The system checks if game history is available.&lt;/div&gt;The system displays a list of the user’s 10&lt;br&gt;most recent game statistics (date, score,&lt;br&gt;difficulty) for all difficulties.&lt;br&gt;&lt;div&gt;The user views the list of scores.&lt;/div&gt;&lt;div&gt;&lt;br&gt;&lt;/div&gt;Alternate Course (No Scores Were Found):&lt;br&gt;The system hides the expand button and&lt;br&gt;shows a message indicating that no scores&lt;br&gt;&lt;div&gt;were found.&lt;/div&gt;&lt;div&gt;&lt;div&gt;&lt;br&gt;&lt;/div&gt;&lt;div&gt;Alternate Course (User is not logged in):&lt;/div&gt;The system shows a create an account message.&lt;/div&gt;" style="shape=note;size=20;whiteSpace=wrap;html=1;fontFamily=Helvetica;fontSize=11;labelBackgroundColor=none;align=left;fillColor=#fff2cc;strokeColor=#d6b656;" vertex="1" parent="1">
          <mxGeometry x="-300" y="340" width="240" height="300" as="geometry" />
        </mxCell>
        <mxCell id="N_dmbNP3DRAMQzcvsTmh-86" value="Display user&#39;s 10 most recent game statistics for all difficulties" style="ellipse;shape=umlControl;whiteSpace=wrap;html=1;" vertex="1" parent="1">
          <mxGeometry x="546.25" y="570" width="110" height="130" as="geometry" />
        </mxCell>
        <mxCell id="N_dmbNP3DRAMQzcvsTmh-87" value="" style="endArrow=classic;html=1;rounded=0;" edge="1" parent="1" source="N_dmbNP3DRAMQzcvsTmh-68" target="N_dmbNP3DRAMQzcvsTmh-158">
          <mxGeometry width="50" height="50" relative="1" as="geometry">
            <mxPoint x="572.3971940149813" y="488.7156298495156" as="sourcePoint" />
            <mxPoint x="350" y="510" as="targetPoint" />
          </mxGeometry>
        </mxCell>
        <mxCell id="N_dmbNP3DRAMQzcvsTmh-88" value="" style="endArrow=classic;html=1;rounded=0;" edge="1" parent="1" source="N_dmbNP3DRAMQzcvsTmh-74" target="N_dmbNP3DRAMQzcvsTmh-86">
          <mxGeometry width="50" height="50" relative="1" as="geometry">
            <mxPoint x="452.5" y="600" as="sourcePoint" />
            <mxPoint x="502.5" y="550" as="targetPoint" />
          </mxGeometry>
        </mxCell>
        <mxCell id="N_dmbNP3DRAMQzcvsTmh-89" value="Yes" style="edgeLabel;html=1;align=center;verticalAlign=middle;resizable=0;points=[];" connectable="0" vertex="1" parent="N_dmbNP3DRAMQzcvsTmh-88">
          <mxGeometry x="0.0717" y="3" relative="1" as="geometry">
            <mxPoint as="offset" />
          </mxGeometry>
        </mxCell>
        <mxCell id="N_dmbNP3DRAMQzcvsTmh-90" value="&lt;div&gt;Statistics&lt;/div&gt;&lt;div&gt;page&lt;/div&gt;" style="shape=umlBoundary;whiteSpace=wrap;html=1;" vertex="1" parent="1">
          <mxGeometry x="72.5" y="910" width="100" height="80" as="geometry" />
        </mxCell>
        <mxCell id="N_dmbNP3DRAMQzcvsTmh-91" value="Game History" style="ellipse;shape=umlEntity;whiteSpace=wrap;html=1;" vertex="1" parent="1">
          <mxGeometry x="663.75" y="890" width="80" height="80" as="geometry" />
        </mxCell>
        <mxCell id="N_dmbNP3DRAMQzcvsTmh-92" value="Display" style="ellipse;shape=umlControl;whiteSpace=wrap;html=1;" vertex="1" parent="1">
          <mxGeometry x="-11.25" y="800" width="70" height="80" as="geometry" />
        </mxCell>
        <mxCell id="N_dmbNP3DRAMQzcvsTmh-93" value="&lt;div&gt;Player&lt;/div&gt;" style="shape=umlActor;verticalLabelPosition=bottom;verticalAlign=top;html=1;" vertex="1" parent="1">
          <mxGeometry x="-50" y="1000" width="30" height="60" as="geometry" />
        </mxCell>
        <mxCell id="N_dmbNP3DRAMQzcvsTmh-94" value="" style="endArrow=classic;html=1;rounded=0;" edge="1" parent="1" source="N_dmbNP3DRAMQzcvsTmh-92" target="N_dmbNP3DRAMQzcvsTmh-90">
          <mxGeometry width="50" height="50" relative="1" as="geometry">
            <mxPoint x="476.25" y="1240" as="sourcePoint" />
            <mxPoint x="526.25" y="1190" as="targetPoint" />
          </mxGeometry>
        </mxCell>
        <mxCell id="N_dmbNP3DRAMQzcvsTmh-95" value="" style="endArrow=classic;html=1;rounded=0;exitX=0.5;exitY=1;exitDx=0;exitDy=0;" edge="1" parent="1" source="N_dmbNP3DRAMQzcvsTmh-91" target="N_dmbNP3DRAMQzcvsTmh-96">
          <mxGeometry width="50" height="50" relative="1" as="geometry">
            <mxPoint x="476.25" y="1240" as="sourcePoint" />
            <mxPoint x="776.25" y="1030" as="targetPoint" />
          </mxGeometry>
        </mxCell>
        <mxCell id="N_dmbNP3DRAMQzcvsTmh-96" value="Are scores found?" style="ellipse;shape=umlControl;whiteSpace=wrap;html=1;" vertex="1" parent="1">
          <mxGeometry x="668.75" y="1010" width="70" height="80" as="geometry" />
        </mxCell>
        <mxCell id="N_dmbNP3DRAMQzcvsTmh-97" value="" style="endArrow=classic;html=1;rounded=0;" edge="1" parent="1" source="N_dmbNP3DRAMQzcvsTmh-108" target="N_dmbNP3DRAMQzcvsTmh-102">
          <mxGeometry width="50" height="50" relative="1" as="geometry">
            <mxPoint x="466.2580682862922" y="1123.8183285142961" as="sourcePoint" />
            <mxPoint x="526.25" y="1160" as="targetPoint" />
          </mxGeometry>
        </mxCell>
        <mxCell id="N_dmbNP3DRAMQzcvsTmh-98" value="Hide expand button and display no scores found message" style="ellipse;shape=umlControl;whiteSpace=wrap;html=1;fillColor=#FF6666;" vertex="1" parent="1">
          <mxGeometry x="465" y="780" width="120" height="140" as="geometry" />
        </mxCell>
        <mxCell id="N_dmbNP3DRAMQzcvsTmh-99" value="" style="endArrow=classic;html=1;rounded=0;" edge="1" parent="1" source="N_dmbNP3DRAMQzcvsTmh-96" target="N_dmbNP3DRAMQzcvsTmh-98">
          <mxGeometry width="50" height="50" relative="1" as="geometry">
            <mxPoint x="686.25" y="1030" as="sourcePoint" />
            <mxPoint x="526.25" y="1160" as="targetPoint" />
          </mxGeometry>
        </mxCell>
        <mxCell id="N_dmbNP3DRAMQzcvsTmh-100" value="No" style="edgeLabel;html=1;align=center;verticalAlign=middle;resizable=0;points=[];" connectable="0" vertex="1" parent="N_dmbNP3DRAMQzcvsTmh-99">
          <mxGeometry x="0.0619" relative="1" as="geometry">
            <mxPoint as="offset" />
          </mxGeometry>
        </mxCell>
        <mxCell id="N_dmbNP3DRAMQzcvsTmh-101" value="" style="endArrow=classic;html=1;rounded=0;" edge="1" parent="1" source="N_dmbNP3DRAMQzcvsTmh-98" target="N_dmbNP3DRAMQzcvsTmh-90">
          <mxGeometry width="50" height="50" relative="1" as="geometry">
            <mxPoint x="476.25" y="1210" as="sourcePoint" />
            <mxPoint x="526.25" y="1160" as="targetPoint" />
          </mxGeometry>
        </mxCell>
        <mxCell id="N_dmbNP3DRAMQzcvsTmh-102" value="Graph view" style="shape=umlBoundary;whiteSpace=wrap;html=1;" vertex="1" parent="1">
          <mxGeometry x="298.75" y="1160" width="100" height="80" as="geometry" />
        </mxCell>
        <mxCell id="N_dmbNP3DRAMQzcvsTmh-103" value="" style="endArrow=classic;html=1;rounded=0;exitX=0.5;exitY=0.5;exitDx=0;exitDy=0;exitPerimeter=0;entryX=-0.03;entryY=0.513;entryDx=0;entryDy=0;entryPerimeter=0;" edge="1" parent="1" source="N_dmbNP3DRAMQzcvsTmh-93" target="N_dmbNP3DRAMQzcvsTmh-102">
          <mxGeometry width="50" height="50" relative="1" as="geometry">
            <mxPoint x="476.25" y="1210" as="sourcePoint" />
            <mxPoint x="526.25" y="1160" as="targetPoint" />
          </mxGeometry>
        </mxCell>
        <mxCell id="N_dmbNP3DRAMQzcvsTmh-104" value="Views" style="edgeLabel;html=1;align=center;verticalAlign=middle;resizable=0;points=[];" connectable="0" vertex="1" parent="N_dmbNP3DRAMQzcvsTmh-103">
          <mxGeometry x="0.0318" y="3" relative="1" as="geometry">
            <mxPoint as="offset" />
          </mxGeometry>
        </mxCell>
        <mxCell id="N_dmbNP3DRAMQzcvsTmh-107" value="&lt;div&gt;Basic Course:&lt;/div&gt;&lt;div&gt;The system checks if the user is logged in.&lt;/div&gt;The system displays the statistics page.&lt;br&gt;The user clicks the expand button near a&lt;br&gt;&lt;div&gt;game.&lt;/div&gt;&lt;div&gt;The system displays the expanded statistics view.&lt;/div&gt;The user clicks the &quot;average score&quot; button.&lt;br&gt;The system checks if personal statistics are available.&lt;br&gt;The system displays a graph view of the&lt;br&gt;user&#39;s average score for the last 7 days (for&lt;br&gt;&lt;div&gt;all difficulties). The user views the graph.&lt;/div&gt;&lt;div&gt;&lt;br&gt;&lt;/div&gt;Alternate Course (No Scores Were Found):&lt;br&gt;The system hides the expand button and&lt;br&gt;shows a message indicating that no scores&lt;br&gt;&lt;div&gt;were found.&lt;/div&gt;&lt;div&gt;&lt;br&gt;&lt;/div&gt;&lt;div&gt;Alternate Course (User is not logged in):&lt;/div&gt;The system shows a create an account message." style="shape=note;size=20;whiteSpace=wrap;html=1;fontFamily=Helvetica;fontSize=11;labelBackgroundColor=none;align=left;fillColor=#fff2cc;strokeColor=#d6b656;" vertex="1" parent="1">
          <mxGeometry x="-380" y="940" width="240" height="310" as="geometry" />
        </mxCell>
        <mxCell id="N_dmbNP3DRAMQzcvsTmh-108" value="Display&lt;br&gt;average&lt;br&gt;score&lt;br&gt;graph" style="ellipse;shape=umlControl;whiteSpace=wrap;html=1;" vertex="1" parent="1">
          <mxGeometry x="483.75" y="1145" width="95" height="105" as="geometry" />
        </mxCell>
        <mxCell id="N_dmbNP3DRAMQzcvsTmh-109" value="" style="endArrow=classic;html=1;rounded=0;" edge="1" parent="1" source="N_dmbNP3DRAMQzcvsTmh-90" target="N_dmbNP3DRAMQzcvsTmh-171">
          <mxGeometry width="50" height="50" relative="1" as="geometry">
            <mxPoint x="596.1471940149813" y="998.7156298495156" as="sourcePoint" />
            <mxPoint x="526.25" y="1060" as="targetPoint" />
          </mxGeometry>
        </mxCell>
        <mxCell id="N_dmbNP3DRAMQzcvsTmh-110" value="" style="endArrow=classic;html=1;rounded=0;" edge="1" parent="1" source="N_dmbNP3DRAMQzcvsTmh-96" target="N_dmbNP3DRAMQzcvsTmh-108">
          <mxGeometry width="50" height="50" relative="1" as="geometry">
            <mxPoint x="476.25" y="1110" as="sourcePoint" />
            <mxPoint x="526.25" y="1060" as="targetPoint" />
          </mxGeometry>
        </mxCell>
        <mxCell id="N_dmbNP3DRAMQzcvsTmh-111" value="Yes" style="edgeLabel;html=1;align=center;verticalAlign=middle;resizable=0;points=[];" connectable="0" vertex="1" parent="N_dmbNP3DRAMQzcvsTmh-110">
          <mxGeometry x="0.0717" y="3" relative="1" as="geometry">
            <mxPoint as="offset" />
          </mxGeometry>
        </mxCell>
        <mxCell id="N_dmbNP3DRAMQzcvsTmh-112" value="timeline of stats view" style="text;html=1;align=center;verticalAlign=middle;whiteSpace=wrap;rounded=0;" vertex="1" parent="1">
          <mxGeometry x="800" y="420" width="60" height="30" as="geometry" />
        </mxCell>
        <mxCell id="N_dmbNP3DRAMQzcvsTmh-113" value="&lt;div&gt;Average stats view&lt;/div&gt;" style="text;html=1;align=center;verticalAlign=middle;whiteSpace=wrap;rounded=0;" vertex="1" parent="1">
          <mxGeometry x="990" y="1060" width="60" height="30" as="geometry" />
        </mxCell>
        <mxCell id="N_dmbNP3DRAMQzcvsTmh-114" value="shortened stats view" style="text;html=1;align=center;verticalAlign=middle;whiteSpace=wrap;rounded=0;" vertex="1" parent="1">
          <mxGeometry x="780" y="-55" width="60" height="30" as="geometry" />
        </mxCell>
        <mxCell id="N_dmbNP3DRAMQzcvsTmh-116" value="Settings page" style="shape=umlBoundary;whiteSpace=wrap;html=1;" vertex="1" parent="1">
          <mxGeometry x="365" y="1730" width="100" height="80" as="geometry" />
        </mxCell>
        <mxCell id="N_dmbNP3DRAMQzcvsTmh-118" value="Display" style="ellipse;shape=umlControl;whiteSpace=wrap;html=1;" vertex="1" parent="1">
          <mxGeometry x="267.5" y="1615" width="70" height="80" as="geometry" />
        </mxCell>
        <mxCell id="N_dmbNP3DRAMQzcvsTmh-119" value="&lt;div&gt;Player&lt;/div&gt;" style="shape=umlActor;verticalLabelPosition=bottom;verticalAlign=top;html=1;" vertex="1" parent="1">
          <mxGeometry x="97.5" y="1740" width="30" height="60" as="geometry" />
        </mxCell>
        <mxCell id="N_dmbNP3DRAMQzcvsTmh-120" value="" style="endArrow=classic;html=1;rounded=0;entryX=0.315;entryY=0.15;entryDx=0;entryDy=0;entryPerimeter=0;" edge="1" parent="1" source="N_dmbNP3DRAMQzcvsTmh-118" target="N_dmbNP3DRAMQzcvsTmh-116">
          <mxGeometry width="50" height="50" relative="1" as="geometry">
            <mxPoint x="427.5" y="2030" as="sourcePoint" />
            <mxPoint x="477.5" y="1980" as="targetPoint" />
          </mxGeometry>
        </mxCell>
        <mxCell id="N_dmbNP3DRAMQzcvsTmh-122" value="Is the privacy switch activated?" style="ellipse;shape=umlControl;whiteSpace=wrap;html=1;" vertex="1" parent="1">
          <mxGeometry x="512.5" y="1717.5" width="90" height="105" as="geometry" />
        </mxCell>
        <mxCell id="N_dmbNP3DRAMQzcvsTmh-124" value="The system marks the player&#39;s scores as public and reveals them in the leaderboards" style="ellipse;shape=umlControl;whiteSpace=wrap;html=1;fillColor=#FF6666;" vertex="1" parent="1">
          <mxGeometry x="618.75" y="1520" width="142.5" height="160" as="geometry" />
        </mxCell>
        <mxCell id="N_dmbNP3DRAMQzcvsTmh-131" value="" style="endArrow=classic;html=1;rounded=0;exitX=0.5;exitY=0.5;exitDx=0;exitDy=0;exitPerimeter=0;" edge="1" parent="1" source="N_dmbNP3DRAMQzcvsTmh-119" target="N_dmbNP3DRAMQzcvsTmh-116">
          <mxGeometry width="50" height="50" relative="1" as="geometry">
            <mxPoint x="427.5" y="2000" as="sourcePoint" />
            <mxPoint x="477.5" y="1950" as="targetPoint" />
          </mxGeometry>
        </mxCell>
        <mxCell id="N_dmbNP3DRAMQzcvsTmh-132" value="Player clicks the privacy switch bar" style="edgeLabel;html=1;align=center;verticalAlign=middle;resizable=0;points=[];" connectable="0" vertex="1" parent="N_dmbNP3DRAMQzcvsTmh-131">
          <mxGeometry x="-0.0087" y="2" relative="1" as="geometry">
            <mxPoint as="offset" />
          </mxGeometry>
        </mxCell>
        <mxCell id="N_dmbNP3DRAMQzcvsTmh-133" value="Basic Course:&lt;br&gt;&lt;div&gt;The system displays the settings page.&lt;/div&gt;&lt;div&gt;The player clicks the privacy switch bar.&lt;/div&gt;&lt;div&gt;The system checks if the privacy switch is active&lt;/div&gt;&lt;div&gt;The system marks the player’s scores as private and hides them in the leaderboards.&lt;/div&gt;&lt;div&gt;The system activates the switch.&lt;/div&gt;&lt;div&gt;&lt;br&gt;&lt;/div&gt;Alternate Course (The scores were already private):&lt;br&gt;&lt;div&gt;The system marks the player’s scores as public and reveals them in the leaderboards.&lt;/div&gt;&lt;div&gt;The system deactivates the switch.&lt;/div&gt;" style="shape=note;size=20;whiteSpace=wrap;html=1;fontFamily=Helvetica;fontSize=11;labelBackgroundColor=none;align=left;fillColor=#fff2cc;strokeColor=#d6b656;" vertex="1" parent="1">
          <mxGeometry x="-195" y="1640" width="267.5" height="240" as="geometry" />
        </mxCell>
        <mxCell id="N_dmbNP3DRAMQzcvsTmh-134" value="The system marks the player&#39;s scores as private and hides them in the leaderboards" style="ellipse;shape=umlControl;whiteSpace=wrap;html=1;" vertex="1" parent="1">
          <mxGeometry x="618.75" y="1833" width="147.5" height="165" as="geometry" />
        </mxCell>
        <mxCell id="N_dmbNP3DRAMQzcvsTmh-135" value="" style="endArrow=classic;html=1;rounded=0;" edge="1" parent="1" source="N_dmbNP3DRAMQzcvsTmh-116" target="N_dmbNP3DRAMQzcvsTmh-122">
          <mxGeometry width="50" height="50" relative="1" as="geometry">
            <mxPoint x="547.3971940149813" y="1788.7156298495156" as="sourcePoint" />
            <mxPoint x="477.5" y="1850" as="targetPoint" />
          </mxGeometry>
        </mxCell>
        <mxCell id="N_dmbNP3DRAMQzcvsTmh-136" value="" style="endArrow=classic;html=1;rounded=0;" edge="1" parent="1" source="N_dmbNP3DRAMQzcvsTmh-122" target="N_dmbNP3DRAMQzcvsTmh-134">
          <mxGeometry width="50" height="50" relative="1" as="geometry">
            <mxPoint x="427.5" y="1900" as="sourcePoint" />
            <mxPoint x="477.5" y="1850" as="targetPoint" />
          </mxGeometry>
        </mxCell>
        <mxCell id="N_dmbNP3DRAMQzcvsTmh-144" value="No" style="edgeLabel;html=1;align=center;verticalAlign=middle;resizable=0;points=[];" connectable="0" vertex="1" parent="N_dmbNP3DRAMQzcvsTmh-136">
          <mxGeometry x="-0.0454" y="1" relative="1" as="geometry">
            <mxPoint as="offset" />
          </mxGeometry>
        </mxCell>
        <mxCell id="N_dmbNP3DRAMQzcvsTmh-138" value="high score visibility" style="text;html=1;align=center;verticalAlign=middle;whiteSpace=wrap;rounded=0;" vertex="1" parent="1">
          <mxGeometry x="962.5" y="1755" width="60" height="30" as="geometry" />
        </mxCell>
        <mxCell id="N_dmbNP3DRAMQzcvsTmh-140" value="" style="endArrow=classic;html=1;rounded=0;" edge="1" parent="1" source="N_dmbNP3DRAMQzcvsTmh-122" target="N_dmbNP3DRAMQzcvsTmh-124">
          <mxGeometry width="50" height="50" relative="1" as="geometry">
            <mxPoint x="332.5" y="1615" as="sourcePoint" />
            <mxPoint x="382.5" y="1565" as="targetPoint" />
          </mxGeometry>
        </mxCell>
        <mxCell id="N_dmbNP3DRAMQzcvsTmh-141" value="Yes" style="edgeLabel;html=1;align=center;verticalAlign=middle;resizable=0;points=[];" connectable="0" vertex="1" parent="N_dmbNP3DRAMQzcvsTmh-140">
          <mxGeometry x="-0.0261" y="-2" relative="1" as="geometry">
            <mxPoint y="-1" as="offset" />
          </mxGeometry>
        </mxCell>
        <mxCell id="N_dmbNP3DRAMQzcvsTmh-145" value="Score visibility settings" style="ellipse;shape=umlEntity;whiteSpace=wrap;html=1;" vertex="1" parent="1">
          <mxGeometry x="657.5" y="1715" width="92.5" height="90" as="geometry" />
        </mxCell>
        <mxCell id="N_dmbNP3DRAMQzcvsTmh-146" value="" style="endArrow=classic;html=1;rounded=0;" edge="1" parent="1" source="N_dmbNP3DRAMQzcvsTmh-124" target="N_dmbNP3DRAMQzcvsTmh-145">
          <mxGeometry width="50" height="50" relative="1" as="geometry">
            <mxPoint x="332.5" y="1705" as="sourcePoint" />
            <mxPoint x="382.5" y="1655" as="targetPoint" />
          </mxGeometry>
        </mxCell>
        <mxCell id="N_dmbNP3DRAMQzcvsTmh-147" value="" style="endArrow=classic;html=1;rounded=0;" edge="1" parent="1" source="N_dmbNP3DRAMQzcvsTmh-134" target="N_dmbNP3DRAMQzcvsTmh-145">
          <mxGeometry width="50" height="50" relative="1" as="geometry">
            <mxPoint x="332.5" y="1705" as="sourcePoint" />
            <mxPoint x="382.5" y="1655" as="targetPoint" />
          </mxGeometry>
        </mxCell>
        <mxCell id="N_dmbNP3DRAMQzcvsTmh-149" value="" style="endArrow=classic;html=1;rounded=0;" edge="1" parent="1" source="N_dmbNP3DRAMQzcvsTmh-134" target="N_dmbNP3DRAMQzcvsTmh-156">
          <mxGeometry width="50" height="50" relative="1" as="geometry">
            <mxPoint x="332.5" y="1705" as="sourcePoint" />
            <mxPoint x="502.5" y="1915.1041666666665" as="targetPoint" />
          </mxGeometry>
        </mxCell>
        <mxCell id="N_dmbNP3DRAMQzcvsTmh-150" value="" style="endArrow=classic;html=1;rounded=0;" edge="1" parent="1" source="N_dmbNP3DRAMQzcvsTmh-156" target="N_dmbNP3DRAMQzcvsTmh-116">
          <mxGeometry width="50" height="50" relative="1" as="geometry">
            <mxPoint x="442.155172413793" y="1875" as="sourcePoint" />
            <mxPoint x="382.5" y="1655" as="targetPoint" />
          </mxGeometry>
        </mxCell>
        <mxCell id="N_dmbNP3DRAMQzcvsTmh-152" value="" style="endArrow=classic;html=1;rounded=0;" edge="1" parent="1" source="N_dmbNP3DRAMQzcvsTmh-124" target="N_dmbNP3DRAMQzcvsTmh-154">
          <mxGeometry width="50" height="50" relative="1" as="geometry">
            <mxPoint x="635.4625000000001" y="1600.58" as="sourcePoint" />
            <mxPoint x="497.5" y="1600" as="targetPoint" />
          </mxGeometry>
        </mxCell>
        <mxCell id="N_dmbNP3DRAMQzcvsTmh-153" value="" style="endArrow=classic;html=1;rounded=0;" edge="1" parent="1" source="N_dmbNP3DRAMQzcvsTmh-154" target="N_dmbNP3DRAMQzcvsTmh-116">
          <mxGeometry width="50" height="50" relative="1" as="geometry">
            <mxPoint x="439.8529411764707" y="1640" as="sourcePoint" />
            <mxPoint x="428" y="1730" as="targetPoint" />
          </mxGeometry>
        </mxCell>
        <mxCell id="N_dmbNP3DRAMQzcvsTmh-154" value="Display with deactivated switch" style="ellipse;shape=umlControl;whiteSpace=wrap;html=1;fillColor=#FF6666;" vertex="1" parent="1">
          <mxGeometry x="374.38" y="1550" width="87.5" height="100" as="geometry" />
        </mxCell>
        <mxCell id="N_dmbNP3DRAMQzcvsTmh-156" value="Display with activated switch" style="ellipse;shape=umlControl;whiteSpace=wrap;html=1;" vertex="1" parent="1">
          <mxGeometry x="368.13" y="1860" width="93.75" height="110" as="geometry" />
        </mxCell>
        <mxCell id="N_dmbNP3DRAMQzcvsTmh-158" value="Click expand button" style="ellipse;shape=umlControl;whiteSpace=wrap;html=1;" vertex="1" parent="1">
          <mxGeometry x="230" y="420" width="70" height="80" as="geometry" />
        </mxCell>
        <mxCell id="N_dmbNP3DRAMQzcvsTmh-159" value="" style="endArrow=classic;html=1;rounded=0;" edge="1" parent="1" source="N_dmbNP3DRAMQzcvsTmh-160" target="N_dmbNP3DRAMQzcvsTmh-162">
          <mxGeometry width="50" height="50" relative="1" as="geometry">
            <mxPoint x="530" y="490" as="sourcePoint" />
            <mxPoint x="540" y="490" as="targetPoint" />
          </mxGeometry>
        </mxCell>
        <mxCell id="N_dmbNP3DRAMQzcvsTmh-160" value="Displays expanded view" style="ellipse;shape=umlControl;whiteSpace=wrap;html=1;" vertex="1" parent="1">
          <mxGeometry x="352.5" y="420" width="70" height="80" as="geometry" />
        </mxCell>
        <mxCell id="N_dmbNP3DRAMQzcvsTmh-161" value="" style="endArrow=classic;html=1;rounded=0;" edge="1" parent="1" source="N_dmbNP3DRAMQzcvsTmh-158" target="N_dmbNP3DRAMQzcvsTmh-160">
          <mxGeometry width="50" height="50" relative="1" as="geometry">
            <mxPoint x="370" y="610" as="sourcePoint" />
            <mxPoint x="420" y="560" as="targetPoint" />
          </mxGeometry>
        </mxCell>
        <mxCell id="N_dmbNP3DRAMQzcvsTmh-162" value="Expanded statistics view" style="shape=umlBoundary;whiteSpace=wrap;html=1;" vertex="1" parent="1">
          <mxGeometry x="337.5" y="520" width="100" height="80" as="geometry" />
        </mxCell>
        <mxCell id="N_dmbNP3DRAMQzcvsTmh-163" value="" style="endArrow=classic;html=1;rounded=0;" edge="1" parent="1" source="N_dmbNP3DRAMQzcvsTmh-162" target="N_dmbNP3DRAMQzcvsTmh-168">
          <mxGeometry width="50" height="50" relative="1" as="geometry">
            <mxPoint x="370" y="640" as="sourcePoint" />
            <mxPoint x="500" y="520" as="targetPoint" />
          </mxGeometry>
        </mxCell>
        <mxCell id="N_dmbNP3DRAMQzcvsTmh-164" value="" style="endArrow=classic;html=1;rounded=0;exitX=0.5;exitY=0.5;exitDx=0;exitDy=0;exitPerimeter=0;entryX=-0.014;entryY=0.513;entryDx=0;entryDy=0;entryPerimeter=0;" edge="1" parent="1" source="N_dmbNP3DRAMQzcvsTmh-71" target="N_dmbNP3DRAMQzcvsTmh-162">
          <mxGeometry width="50" height="50" relative="1" as="geometry">
            <mxPoint x="350" y="430" as="sourcePoint" />
            <mxPoint x="420" y="440" as="targetPoint" />
          </mxGeometry>
        </mxCell>
        <mxCell id="N_dmbNP3DRAMQzcvsTmh-168" value="Click &quot;last games&quot; button" style="ellipse;shape=umlControl;whiteSpace=wrap;html=1;" vertex="1" parent="1">
          <mxGeometry x="476.25" y="470" width="70" height="80" as="geometry" />
        </mxCell>
        <mxCell id="N_dmbNP3DRAMQzcvsTmh-170" value="" style="endArrow=classic;html=1;rounded=0;" edge="1" parent="1" source="N_dmbNP3DRAMQzcvsTmh-168" target="N_dmbNP3DRAMQzcvsTmh-74">
          <mxGeometry width="50" height="50" relative="1" as="geometry">
            <mxPoint x="448" y="550" as="sourcePoint" />
            <mxPoint x="488" y="533" as="targetPoint" />
          </mxGeometry>
        </mxCell>
        <mxCell id="N_dmbNP3DRAMQzcvsTmh-172" value="Displays expanded view" style="ellipse;shape=umlControl;whiteSpace=wrap;html=1;" vertex="1" parent="1">
          <mxGeometry x="398.75" y="910" width="70" height="80" as="geometry" />
        </mxCell>
        <mxCell id="N_dmbNP3DRAMQzcvsTmh-173" value="" style="endArrow=classic;html=1;rounded=0;" edge="1" parent="1" source="N_dmbNP3DRAMQzcvsTmh-171" target="N_dmbNP3DRAMQzcvsTmh-172">
          <mxGeometry width="50" height="50" relative="1" as="geometry">
            <mxPoint x="852.25" y="930" as="sourcePoint" />
            <mxPoint x="902.25" y="880" as="targetPoint" />
          </mxGeometry>
        </mxCell>
        <mxCell id="N_dmbNP3DRAMQzcvsTmh-174" value="Expanded statistics view" style="shape=umlBoundary;whiteSpace=wrap;html=1;" vertex="1" parent="1">
          <mxGeometry x="383.75" y="1010" width="100" height="80" as="geometry" />
        </mxCell>
        <mxCell id="N_dmbNP3DRAMQzcvsTmh-175" value="" style="endArrow=classic;html=1;rounded=0;" edge="1" parent="1" source="N_dmbNP3DRAMQzcvsTmh-174" target="N_dmbNP3DRAMQzcvsTmh-176">
          <mxGeometry width="50" height="50" relative="1" as="geometry">
            <mxPoint x="852.25" y="960" as="sourcePoint" />
            <mxPoint x="982.25" y="840" as="targetPoint" />
          </mxGeometry>
        </mxCell>
        <mxCell id="N_dmbNP3DRAMQzcvsTmh-176" value="Click the &quot;average score&quot; button" style="ellipse;shape=umlControl;whiteSpace=wrap;html=1;" vertex="1" parent="1">
          <mxGeometry x="538.5" y="1000" width="92.75" height="100" as="geometry" />
        </mxCell>
        <mxCell id="N_dmbNP3DRAMQzcvsTmh-177" value="" style="endArrow=classic;html=1;rounded=0;" edge="1" parent="1" source="N_dmbNP3DRAMQzcvsTmh-176" target="N_dmbNP3DRAMQzcvsTmh-96">
          <mxGeometry width="50" height="50" relative="1" as="geometry">
            <mxPoint x="930.25" y="870" as="sourcePoint" />
            <mxPoint x="1090.25" y="785" as="targetPoint" />
          </mxGeometry>
        </mxCell>
        <mxCell id="N_dmbNP3DRAMQzcvsTmh-178" value="" style="endArrow=classic;html=1;rounded=0;" edge="1" parent="1" source="N_dmbNP3DRAMQzcvsTmh-172" target="N_dmbNP3DRAMQzcvsTmh-174">
          <mxGeometry width="50" height="50" relative="1" as="geometry">
            <mxPoint x="381.25" y="950" as="sourcePoint" />
            <mxPoint x="431.25" y="900" as="targetPoint" />
          </mxGeometry>
        </mxCell>
        <mxCell id="N_dmbNP3DRAMQzcvsTmh-181" value="Is user logged in?" style="ellipse;shape=umlControl;whiteSpace=wrap;html=1;" vertex="1" parent="1">
          <mxGeometry x="87.5" y="720" width="70" height="80" as="geometry" />
        </mxCell>
        <mxCell id="N_dmbNP3DRAMQzcvsTmh-183" value="" style="endArrow=classic;html=1;rounded=0;" edge="1" parent="1" source="N_dmbNP3DRAMQzcvsTmh-181" target="N_dmbNP3DRAMQzcvsTmh-92">
          <mxGeometry width="50" height="50" relative="1" as="geometry">
            <mxPoint x="310" y="810" as="sourcePoint" />
            <mxPoint x="360" y="760" as="targetPoint" />
          </mxGeometry>
        </mxCell>
        <mxCell id="N_dmbNP3DRAMQzcvsTmh-185" value="Yes" style="edgeLabel;html=1;align=center;verticalAlign=middle;resizable=0;points=[];" connectable="0" vertex="1" parent="N_dmbNP3DRAMQzcvsTmh-183">
          <mxGeometry relative="1" as="geometry">
            <mxPoint as="offset" />
          </mxGeometry>
        </mxCell>
        <mxCell id="N_dmbNP3DRAMQzcvsTmh-184" value="" style="endArrow=classic;html=1;rounded=0;exitX=0.5;exitY=0.5;exitDx=0;exitDy=0;exitPerimeter=0;" edge="1" parent="1" source="N_dmbNP3DRAMQzcvsTmh-93" target="N_dmbNP3DRAMQzcvsTmh-90">
          <mxGeometry width="50" height="50" relative="1" as="geometry">
            <mxPoint x="310" y="840" as="sourcePoint" />
            <mxPoint x="360" y="790" as="targetPoint" />
          </mxGeometry>
        </mxCell>
        <mxCell id="N_dmbNP3DRAMQzcvsTmh-186" value="" style="endArrow=classic;html=1;rounded=0;" edge="1" parent="1" source="N_dmbNP3DRAMQzcvsTmh-181" target="N_dmbNP3DRAMQzcvsTmh-187">
          <mxGeometry width="50" height="50" relative="1" as="geometry">
            <mxPoint x="310" y="870" as="sourcePoint" />
            <mxPoint x="310" y="780" as="targetPoint" />
          </mxGeometry>
        </mxCell>
        <mxCell id="N_dmbNP3DRAMQzcvsTmh-188" value="No" style="edgeLabel;html=1;align=center;verticalAlign=middle;resizable=0;points=[];" connectable="0" vertex="1" parent="N_dmbNP3DRAMQzcvsTmh-186">
          <mxGeometry x="-0.0254" y="-2" relative="1" as="geometry">
            <mxPoint as="offset" />
          </mxGeometry>
        </mxCell>
        <mxCell id="N_dmbNP3DRAMQzcvsTmh-187" value="Display create an account message" style="ellipse;shape=umlControl;whiteSpace=wrap;html=1;fillColor=#FF6666;" vertex="1" parent="1">
          <mxGeometry x="200" y="790" width="91.87" height="100" as="geometry" />
        </mxCell>
        <mxCell id="N_dmbNP3DRAMQzcvsTmh-193" value="" style="endArrow=classic;html=1;rounded=0;" edge="1" parent="1" source="N_dmbNP3DRAMQzcvsTmh-187" target="N_dmbNP3DRAMQzcvsTmh-90">
          <mxGeometry width="50" height="50" relative="1" as="geometry">
            <mxPoint x="310" y="1020" as="sourcePoint" />
            <mxPoint x="360" y="970" as="targetPoint" />
          </mxGeometry>
        </mxCell>
        <mxCell id="N_dmbNP3DRAMQzcvsTmh-194" value="" style="endArrow=classic;html=1;rounded=0;" edge="1" parent="1" source="N_dmbNP3DRAMQzcvsTmh-90" target="N_dmbNP3DRAMQzcvsTmh-181">
          <mxGeometry width="50" height="50" relative="1" as="geometry">
            <mxPoint x="310" y="1020" as="sourcePoint" />
            <mxPoint x="360" y="970" as="targetPoint" />
          </mxGeometry>
        </mxCell>
        <mxCell id="N_dmbNP3DRAMQzcvsTmh-171" value="Click expand button" style="ellipse;shape=umlControl;whiteSpace=wrap;html=1;" vertex="1" parent="1">
          <mxGeometry x="280" y="910" width="70" height="80" as="geometry" />
        </mxCell>
        <mxCell id="N_dmbNP3DRAMQzcvsTmh-196" value="" style="endArrow=classic;html=1;rounded=0;exitX=0.5;exitY=0.5;exitDx=0;exitDy=0;exitPerimeter=0;" edge="1" parent="1" source="N_dmbNP3DRAMQzcvsTmh-93" target="N_dmbNP3DRAMQzcvsTmh-174">
          <mxGeometry width="50" height="50" relative="1" as="geometry">
            <mxPoint x="310" y="1020" as="sourcePoint" />
            <mxPoint x="360" y="970" as="targetPoint" />
          </mxGeometry>
        </mxCell>
        <mxCell id="N_dmbNP3DRAMQzcvsTmh-197" value="Display" style="ellipse;shape=umlControl;whiteSpace=wrap;html=1;" vertex="1" parent="1">
          <mxGeometry x="10" y="270" width="70" height="80" as="geometry" />
        </mxCell>
        <mxCell id="N_dmbNP3DRAMQzcvsTmh-198" value="" style="endArrow=classic;html=1;rounded=0;" edge="1" parent="1" source="N_dmbNP3DRAMQzcvsTmh-197" target="N_dmbNP3DRAMQzcvsTmh-68">
          <mxGeometry width="50" height="50" relative="1" as="geometry">
            <mxPoint x="497.5" y="640" as="sourcePoint" />
            <mxPoint x="122" y="306" as="targetPoint" />
          </mxGeometry>
        </mxCell>
        <mxCell id="N_dmbNP3DRAMQzcvsTmh-199" value="Is user logged in?" style="ellipse;shape=umlControl;whiteSpace=wrap;html=1;" vertex="1" parent="1">
          <mxGeometry x="108.75" y="190" width="70" height="80" as="geometry" />
        </mxCell>
        <mxCell id="N_dmbNP3DRAMQzcvsTmh-200" value="" style="endArrow=classic;html=1;rounded=0;" edge="1" parent="1" source="N_dmbNP3DRAMQzcvsTmh-199" target="N_dmbNP3DRAMQzcvsTmh-197">
          <mxGeometry width="50" height="50" relative="1" as="geometry">
            <mxPoint x="331.25" y="280" as="sourcePoint" />
            <mxPoint x="381.25" y="230" as="targetPoint" />
          </mxGeometry>
        </mxCell>
        <mxCell id="N_dmbNP3DRAMQzcvsTmh-201" value="Yes" style="edgeLabel;html=1;align=center;verticalAlign=middle;resizable=0;points=[];" connectable="0" vertex="1" parent="N_dmbNP3DRAMQzcvsTmh-200">
          <mxGeometry relative="1" as="geometry">
            <mxPoint as="offset" />
          </mxGeometry>
        </mxCell>
        <mxCell id="N_dmbNP3DRAMQzcvsTmh-202" value="" style="endArrow=classic;html=1;rounded=0;" edge="1" parent="1" source="N_dmbNP3DRAMQzcvsTmh-199" target="N_dmbNP3DRAMQzcvsTmh-204">
          <mxGeometry width="50" height="50" relative="1" as="geometry">
            <mxPoint x="331.25" y="340" as="sourcePoint" />
            <mxPoint x="331.25" y="250" as="targetPoint" />
          </mxGeometry>
        </mxCell>
        <mxCell id="N_dmbNP3DRAMQzcvsTmh-203" value="No" style="edgeLabel;html=1;align=center;verticalAlign=middle;resizable=0;points=[];" connectable="0" vertex="1" parent="N_dmbNP3DRAMQzcvsTmh-202">
          <mxGeometry x="-0.0254" y="-2" relative="1" as="geometry">
            <mxPoint as="offset" />
          </mxGeometry>
        </mxCell>
        <mxCell id="N_dmbNP3DRAMQzcvsTmh-204" value="Display create an account message" style="ellipse;shape=umlControl;whiteSpace=wrap;html=1;fillColor=#FF6666;" vertex="1" parent="1">
          <mxGeometry x="221.25" y="260" width="91.87" height="100" as="geometry" />
        </mxCell>
        <mxCell id="N_dmbNP3DRAMQzcvsTmh-205" value="" style="endArrow=classic;html=1;rounded=0;" edge="1" parent="1" source="N_dmbNP3DRAMQzcvsTmh-204" target="N_dmbNP3DRAMQzcvsTmh-68">
          <mxGeometry width="50" height="50" relative="1" as="geometry">
            <mxPoint x="331.25" y="420" as="sourcePoint" />
            <mxPoint x="179.03557116668026" y="307.66494525639973" as="targetPoint" />
          </mxGeometry>
        </mxCell>
        <mxCell id="N_dmbNP3DRAMQzcvsTmh-206" value="" style="endArrow=classic;html=1;rounded=0;" edge="1" parent="1" source="N_dmbNP3DRAMQzcvsTmh-68" target="N_dmbNP3DRAMQzcvsTmh-199">
          <mxGeometry width="50" height="50" relative="1" as="geometry">
            <mxPoint x="148.76999102759828" y="290.02470839694433" as="sourcePoint" />
            <mxPoint x="381.25" y="370" as="targetPoint" />
          </mxGeometry>
        </mxCell>
        <mxCell id="N_dmbNP3DRAMQzcvsTmh-207" value="Display" style="ellipse;shape=umlControl;whiteSpace=wrap;html=1;" vertex="1" parent="1">
          <mxGeometry x="87.5" y="-230" width="70" height="80" as="geometry" />
        </mxCell>
        <mxCell id="N_dmbNP3DRAMQzcvsTmh-208" value="" style="endArrow=classic;html=1;rounded=0;" edge="1" parent="1" source="N_dmbNP3DRAMQzcvsTmh-207" target="N_dmbNP3DRAMQzcvsTmh-2">
          <mxGeometry width="50" height="50" relative="1" as="geometry">
            <mxPoint x="575" y="210" as="sourcePoint" />
            <mxPoint x="185.75" y="-120" as="targetPoint" />
          </mxGeometry>
        </mxCell>
        <mxCell id="N_dmbNP3DRAMQzcvsTmh-209" value="Is user logged in?" style="ellipse;shape=umlControl;whiteSpace=wrap;html=1;" vertex="1" parent="1">
          <mxGeometry x="186.25" y="-310" width="70" height="80" as="geometry" />
        </mxCell>
        <mxCell id="N_dmbNP3DRAMQzcvsTmh-210" value="" style="endArrow=classic;html=1;rounded=0;" edge="1" parent="1" source="N_dmbNP3DRAMQzcvsTmh-209" target="N_dmbNP3DRAMQzcvsTmh-207">
          <mxGeometry width="50" height="50" relative="1" as="geometry">
            <mxPoint x="408.75" y="-220" as="sourcePoint" />
            <mxPoint x="458.75" y="-270" as="targetPoint" />
          </mxGeometry>
        </mxCell>
        <mxCell id="N_dmbNP3DRAMQzcvsTmh-211" value="Yes" style="edgeLabel;html=1;align=center;verticalAlign=middle;resizable=0;points=[];" connectable="0" vertex="1" parent="N_dmbNP3DRAMQzcvsTmh-210">
          <mxGeometry relative="1" as="geometry">
            <mxPoint as="offset" />
          </mxGeometry>
        </mxCell>
        <mxCell id="N_dmbNP3DRAMQzcvsTmh-212" value="" style="endArrow=classic;html=1;rounded=0;" edge="1" parent="1" source="N_dmbNP3DRAMQzcvsTmh-209" target="N_dmbNP3DRAMQzcvsTmh-214">
          <mxGeometry width="50" height="50" relative="1" as="geometry">
            <mxPoint x="408.75" y="-160" as="sourcePoint" />
            <mxPoint x="408.75" y="-250" as="targetPoint" />
          </mxGeometry>
        </mxCell>
        <mxCell id="N_dmbNP3DRAMQzcvsTmh-213" value="No" style="edgeLabel;html=1;align=center;verticalAlign=middle;resizable=0;points=[];" connectable="0" vertex="1" parent="N_dmbNP3DRAMQzcvsTmh-212">
          <mxGeometry x="-0.0254" y="-2" relative="1" as="geometry">
            <mxPoint as="offset" />
          </mxGeometry>
        </mxCell>
        <mxCell id="N_dmbNP3DRAMQzcvsTmh-214" value="Display create an account message" style="ellipse;shape=umlControl;whiteSpace=wrap;html=1;fillColor=#FF6666;" vertex="1" parent="1">
          <mxGeometry x="298.75" y="-240" width="91.87" height="100" as="geometry" />
        </mxCell>
        <mxCell id="N_dmbNP3DRAMQzcvsTmh-215" value="" style="endArrow=classic;html=1;rounded=0;" edge="1" parent="1" source="N_dmbNP3DRAMQzcvsTmh-214" target="N_dmbNP3DRAMQzcvsTmh-2">
          <mxGeometry width="50" height="50" relative="1" as="geometry">
            <mxPoint x="408.75" y="-10" as="sourcePoint" />
            <mxPoint x="265.75" y="-120" as="targetPoint" />
          </mxGeometry>
        </mxCell>
        <mxCell id="N_dmbNP3DRAMQzcvsTmh-216" value="" style="endArrow=classic;html=1;rounded=0;" edge="1" parent="1" source="N_dmbNP3DRAMQzcvsTmh-2" target="N_dmbNP3DRAMQzcvsTmh-209">
          <mxGeometry width="50" height="50" relative="1" as="geometry">
            <mxPoint x="221.75" y="-120" as="sourcePoint" />
            <mxPoint x="458.75" y="-60" as="targetPoint" />
          </mxGeometry>
        </mxCell>
        <mxCell id="N_dmbNP3DRAMQzcvsTmh-261" value="Player" style="shape=umlActor;verticalLabelPosition=bottom;verticalAlign=top;html=1;" vertex="1" parent="1">
          <mxGeometry x="-50" y="2340" width="30" height="60" as="geometry" />
        </mxCell>
        <mxCell id="N_dmbNP3DRAMQzcvsTmh-262" value="Basic Course:&lt;br&gt;&lt;div&gt;&lt;br&gt;&lt;/div&gt;&lt;div&gt;The system displays the Math Game page with generated question, answer choices and timer.&lt;/div&gt;The system generates a math question and answer options on the gameplay page.&lt;br&gt;The player selects an answer.&lt;br&gt;The system verifies if the timer has not expired.&lt;br&gt;The system checks if the selected answer is correct.&lt;br&gt;&lt;div&gt;The system increments the score, generates a new math question with answer options.&lt;/div&gt;&lt;div&gt;The system detects that the timer has expired.&lt;br&gt;The system ignores the selection and updates the gameplay page to display the final score.&lt;/div&gt;&lt;br&gt;Alternate Course 1 (Incorrect Answer):&lt;br&gt;&lt;br&gt;The system does not change the score.&lt;br&gt;&lt;br&gt;Alternate Course 2 (Player is not logged in):&lt;br&gt;&lt;div&gt;&lt;br/&gt;&lt;/div&gt;" style="shape=note;size=20;whiteSpace=wrap;html=1;fontFamily=Helvetica;fontSize=11;labelBackgroundColor=none;align=left;fillColor=#fff2cc;strokeColor=#d6b656;" vertex="1" parent="1">
          <mxGeometry x="-370" y="2240" width="267.5" height="280" as="geometry" />
        </mxCell>
        <mxCell id="N_dmbNP3DRAMQzcvsTmh-263" value="Math Game gameplay page" style="shape=umlBoundary;whiteSpace=wrap;html=1;" vertex="1" parent="1">
          <mxGeometry x="86.25" y="2330" width="100" height="80" as="geometry" />
        </mxCell>
        <mxCell id="N_dmbNP3DRAMQzcvsTmh-264" value="Timer" style="ellipse;shape=umlEntity;whiteSpace=wrap;html=1;" vertex="1" parent="1">
          <mxGeometry x="-91.25" y="2170" width="80" height="80" as="geometry" />
        </mxCell>
        <mxCell id="N_dmbNP3DRAMQzcvsTmh-265" value="Initialize page with a question, answers and a timer" style="ellipse;shape=umlControl;whiteSpace=wrap;html=1;" vertex="1" parent="1">
          <mxGeometry x="80" y="2140" width="120" height="140" as="geometry" />
        </mxCell>
        <mxCell id="N_dmbNP3DRAMQzcvsTmh-266" value="" style="endArrow=classic;html=1;rounded=0;" edge="1" parent="1" source="N_dmbNP3DRAMQzcvsTmh-264" target="N_dmbNP3DRAMQzcvsTmh-265">
          <mxGeometry width="50" height="50" relative="1" as="geometry">
            <mxPoint x="310" y="2410" as="sourcePoint" />
            <mxPoint x="360" y="2360" as="targetPoint" />
          </mxGeometry>
        </mxCell>
        <mxCell id="N_dmbNP3DRAMQzcvsTmh-267" value="" style="endArrow=classic;html=1;rounded=0;" edge="1" parent="1" source="N_dmbNP3DRAMQzcvsTmh-265" target="N_dmbNP3DRAMQzcvsTmh-263">
          <mxGeometry width="50" height="50" relative="1" as="geometry">
            <mxPoint x="310" y="2410" as="sourcePoint" />
            <mxPoint x="360" y="2360" as="targetPoint" />
          </mxGeometry>
        </mxCell>
        <mxCell id="N_dmbNP3DRAMQzcvsTmh-268" value="" style="endArrow=classic;html=1;rounded=0;exitX=0.5;exitY=0.5;exitDx=0;exitDy=0;exitPerimeter=0;" edge="1" parent="1" source="N_dmbNP3DRAMQzcvsTmh-261" target="N_dmbNP3DRAMQzcvsTmh-263">
          <mxGeometry width="50" height="50" relative="1" as="geometry">
            <mxPoint x="310" y="2410" as="sourcePoint" />
            <mxPoint x="360" y="2360" as="targetPoint" />
          </mxGeometry>
        </mxCell>
        <mxCell id="N_dmbNP3DRAMQzcvsTmh-269" value="" style="endArrow=classic;html=1;rounded=0;" edge="1" parent="1" source="N_dmbNP3DRAMQzcvsTmh-263" target="N_dmbNP3DRAMQzcvsTmh-270">
          <mxGeometry width="50" height="50" relative="1" as="geometry">
            <mxPoint x="310" y="2410" as="sourcePoint" />
            <mxPoint x="360" y="2440" as="targetPoint" />
          </mxGeometry>
        </mxCell>
        <mxCell id="N_dmbNP3DRAMQzcvsTmh-283" value="Click on answer" style="edgeLabel;html=1;align=center;verticalAlign=middle;resizable=0;points=[];" connectable="0" vertex="1" parent="N_dmbNP3DRAMQzcvsTmh-269">
          <mxGeometry x="-0.1929" relative="1" as="geometry">
            <mxPoint as="offset" />
          </mxGeometry>
        </mxCell>
        <mxCell id="N_dmbNP3DRAMQzcvsTmh-270" value="Has timer ran out?" style="ellipse;shape=umlControl;whiteSpace=wrap;html=1;" vertex="1" parent="1">
          <mxGeometry x="338.75" y="2360" width="70" height="80" as="geometry" />
        </mxCell>
        <mxCell id="N_dmbNP3DRAMQzcvsTmh-271" value="" style="endArrow=classic;html=1;rounded=0;" edge="1" parent="1" source="N_dmbNP3DRAMQzcvsTmh-270" target="N_dmbNP3DRAMQzcvsTmh-298">
          <mxGeometry width="50" height="50" relative="1" as="geometry">
            <mxPoint x="310" y="2410" as="sourcePoint" />
            <mxPoint x="330" y="2260" as="targetPoint" />
          </mxGeometry>
        </mxCell>
        <mxCell id="N_dmbNP3DRAMQzcvsTmh-282" value="No" style="edgeLabel;html=1;align=center;verticalAlign=middle;resizable=0;points=[];" connectable="0" vertex="1" parent="N_dmbNP3DRAMQzcvsTmh-271">
          <mxGeometry x="-0.0958" relative="1" as="geometry">
            <mxPoint as="offset" />
          </mxGeometry>
        </mxCell>
        <mxCell id="N_dmbNP3DRAMQzcvsTmh-272" value="Remove and generate new question and answers" style="ellipse;shape=umlControl;whiteSpace=wrap;html=1;fillColor=#FFFFFF;" vertex="1" parent="1">
          <mxGeometry x="316.25" y="2110" width="115" height="130" as="geometry" />
        </mxCell>
        <mxCell id="N_dmbNP3DRAMQzcvsTmh-273" value="Display new question and answers" style="ellipse;shape=umlControl;whiteSpace=wrap;html=1;" vertex="1" parent="1">
          <mxGeometry x="208.5" y="2220" width="91.5" height="100" as="geometry" />
        </mxCell>
        <mxCell id="N_dmbNP3DRAMQzcvsTmh-274" value="" style="endArrow=classic;html=1;rounded=0;" edge="1" parent="1" source="N_dmbNP3DRAMQzcvsTmh-272" target="N_dmbNP3DRAMQzcvsTmh-273">
          <mxGeometry width="50" height="50" relative="1" as="geometry">
            <mxPoint x="310" y="2410" as="sourcePoint" />
            <mxPoint x="360" y="2360" as="targetPoint" />
          </mxGeometry>
        </mxCell>
        <mxCell id="N_dmbNP3DRAMQzcvsTmh-275" value="" style="endArrow=classic;html=1;rounded=0;" edge="1" parent="1" source="N_dmbNP3DRAMQzcvsTmh-273" target="N_dmbNP3DRAMQzcvsTmh-263">
          <mxGeometry width="50" height="50" relative="1" as="geometry">
            <mxPoint x="310" y="2410" as="sourcePoint" />
            <mxPoint x="360" y="2360" as="targetPoint" />
          </mxGeometry>
        </mxCell>
        <mxCell id="N_dmbNP3DRAMQzcvsTmh-276" value="Timer" style="ellipse;shape=umlEntity;whiteSpace=wrap;html=1;" vertex="1" parent="1">
          <mxGeometry x="630" y="2370" width="80" height="80" as="geometry" />
        </mxCell>
        <mxCell id="N_dmbNP3DRAMQzcvsTmh-278" value="" style="endArrow=none;html=1;rounded=0;" edge="1" parent="1" source="N_dmbNP3DRAMQzcvsTmh-270" target="N_dmbNP3DRAMQzcvsTmh-276">
          <mxGeometry width="50" height="50" relative="1" as="geometry">
            <mxPoint x="310" y="2380" as="sourcePoint" />
            <mxPoint x="360" y="2330" as="targetPoint" />
          </mxGeometry>
        </mxCell>
        <mxCell id="N_dmbNP3DRAMQzcvsTmh-279" value="Is player logged in?" style="ellipse;shape=umlControl;whiteSpace=wrap;html=1;fillColor=#FFFFFF;" vertex="1" parent="1">
          <mxGeometry x="476.25" y="2480" width="70" height="80" as="geometry" />
        </mxCell>
        <mxCell id="N_dmbNP3DRAMQzcvsTmh-280" value="" style="endArrow=classic;html=1;rounded=0;" edge="1" parent="1" source="N_dmbNP3DRAMQzcvsTmh-270" target="N_dmbNP3DRAMQzcvsTmh-279">
          <mxGeometry width="50" height="50" relative="1" as="geometry">
            <mxPoint x="310" y="2380" as="sourcePoint" />
            <mxPoint x="360" y="2330" as="targetPoint" />
          </mxGeometry>
        </mxCell>
        <mxCell id="N_dmbNP3DRAMQzcvsTmh-281" value="Yes" style="edgeLabel;html=1;align=center;verticalAlign=middle;resizable=0;points=[];" connectable="0" vertex="1" parent="N_dmbNP3DRAMQzcvsTmh-280">
          <mxGeometry x="-0.0085" y="2" relative="1" as="geometry">
            <mxPoint as="offset" />
          </mxGeometry>
        </mxCell>
        <mxCell id="N_dmbNP3DRAMQzcvsTmh-284" value="Player Session" style="ellipse;shape=umlEntity;whiteSpace=wrap;html=1;" vertex="1" parent="1">
          <mxGeometry x="618.75" y="2480" width="80" height="80" as="geometry" />
        </mxCell>
        <mxCell id="N_dmbNP3DRAMQzcvsTmh-285" value="" style="endArrow=none;html=1;rounded=0;" edge="1" parent="1" source="N_dmbNP3DRAMQzcvsTmh-284" target="N_dmbNP3DRAMQzcvsTmh-279">
          <mxGeometry width="50" height="50" relative="1" as="geometry">
            <mxPoint x="391.25" y="2549.05" as="sourcePoint" />
            <mxPoint x="441.25" y="2499.05" as="targetPoint" />
          </mxGeometry>
        </mxCell>
        <mxCell id="N_dmbNP3DRAMQzcvsTmh-286" value="High score entry" style="ellipse;shape=umlEntity;whiteSpace=wrap;html=1;" vertex="1" parent="1">
          <mxGeometry x="108.75" y="2590" width="80" height="80" as="geometry" />
        </mxCell>
        <mxCell id="N_dmbNP3DRAMQzcvsTmh-287" value="Display score" style="ellipse;shape=umlControl;whiteSpace=wrap;html=1;fillColor=#FFFFFF;" vertex="1" parent="1">
          <mxGeometry x="290" y="2460" width="70" height="80" as="geometry" />
        </mxCell>
        <mxCell id="N_dmbNP3DRAMQzcvsTmh-288" value="" style="endArrow=classic;html=1;rounded=0;" edge="1" parent="1" source="N_dmbNP3DRAMQzcvsTmh-279" target="N_dmbNP3DRAMQzcvsTmh-287">
          <mxGeometry width="50" height="50" relative="1" as="geometry">
            <mxPoint x="391.25" y="2549.05" as="sourcePoint" />
            <mxPoint x="441.25" y="2499.05" as="targetPoint" />
          </mxGeometry>
        </mxCell>
        <mxCell id="N_dmbNP3DRAMQzcvsTmh-295" value="No" style="edgeLabel;html=1;align=center;verticalAlign=middle;resizable=0;points=[];" connectable="0" vertex="1" parent="N_dmbNP3DRAMQzcvsTmh-288">
          <mxGeometry x="0.165" y="4" relative="1" as="geometry">
            <mxPoint as="offset" />
          </mxGeometry>
        </mxCell>
        <mxCell id="N_dmbNP3DRAMQzcvsTmh-289" value="" style="endArrow=classic;html=1;rounded=0;entryX=0.943;entryY=0.4;entryDx=0;entryDy=0;entryPerimeter=0;" edge="1" parent="1" source="N_dmbNP3DRAMQzcvsTmh-279" target="N_dmbNP3DRAMQzcvsTmh-291">
          <mxGeometry width="50" height="50" relative="1" as="geometry">
            <mxPoint x="391.25" y="2549.05" as="sourcePoint" />
            <mxPoint x="181.25" y="2659.05" as="targetPoint" />
          </mxGeometry>
        </mxCell>
        <mxCell id="N_dmbNP3DRAMQzcvsTmh-294" value="Yes" style="edgeLabel;html=1;align=center;verticalAlign=middle;resizable=0;points=[];" connectable="0" vertex="1" parent="N_dmbNP3DRAMQzcvsTmh-289">
          <mxGeometry x="0.1364" y="1" relative="1" as="geometry">
            <mxPoint as="offset" />
          </mxGeometry>
        </mxCell>
        <mxCell id="N_dmbNP3DRAMQzcvsTmh-291" value="Save score" style="ellipse;shape=umlControl;whiteSpace=wrap;html=1;fillColor=#FFFFFF;" vertex="1" parent="1">
          <mxGeometry x="291.87" y="2590" width="70" height="80" as="geometry" />
        </mxCell>
        <mxCell id="N_dmbNP3DRAMQzcvsTmh-292" value="" style="endArrow=classic;html=1;rounded=0;" edge="1" parent="1" source="N_dmbNP3DRAMQzcvsTmh-291" target="N_dmbNP3DRAMQzcvsTmh-287">
          <mxGeometry width="50" height="50" relative="1" as="geometry">
            <mxPoint x="391.25" y="2549.05" as="sourcePoint" />
            <mxPoint x="441.25" y="2499.05" as="targetPoint" />
          </mxGeometry>
        </mxCell>
        <mxCell id="N_dmbNP3DRAMQzcvsTmh-293" value="" style="endArrow=classic;html=1;rounded=0;" edge="1" parent="1" source="N_dmbNP3DRAMQzcvsTmh-291" target="N_dmbNP3DRAMQzcvsTmh-286">
          <mxGeometry width="50" height="50" relative="1" as="geometry">
            <mxPoint x="391.25" y="2549.05" as="sourcePoint" />
            <mxPoint x="441.25" y="2499.05" as="targetPoint" />
          </mxGeometry>
        </mxCell>
        <mxCell id="N_dmbNP3DRAMQzcvsTmh-296" value="Math Game gamepage" style="shape=umlBoundary;whiteSpace=wrap;html=1;" vertex="1" parent="1">
          <mxGeometry x="97.5" y="2430" width="100" height="80" as="geometry" />
        </mxCell>
        <mxCell id="N_dmbNP3DRAMQzcvsTmh-297" value="" style="endArrow=classic;html=1;rounded=0;" edge="1" parent="1" source="N_dmbNP3DRAMQzcvsTmh-287" target="N_dmbNP3DRAMQzcvsTmh-296">
          <mxGeometry width="50" height="50" relative="1" as="geometry">
            <mxPoint x="310" y="2500" as="sourcePoint" />
            <mxPoint x="360" y="2450" as="targetPoint" />
          </mxGeometry>
        </mxCell>
        <mxCell id="N_dmbNP3DRAMQzcvsTmh-298" value="Is the answer correct?" style="ellipse;shape=umlControl;whiteSpace=wrap;html=1;" vertex="1" parent="1">
          <mxGeometry x="522.5" y="2240" width="70" height="80" as="geometry" />
        </mxCell>
        <mxCell id="N_dmbNP3DRAMQzcvsTmh-299" value="" style="endArrow=classic;html=1;rounded=0;" edge="1" parent="1" source="N_dmbNP3DRAMQzcvsTmh-298" target="N_dmbNP3DRAMQzcvsTmh-302">
          <mxGeometry width="50" height="50" relative="1" as="geometry">
            <mxPoint x="310" y="2500" as="sourcePoint" />
            <mxPoint x="600" y="2190" as="targetPoint" />
          </mxGeometry>
        </mxCell>
        <mxCell id="N_dmbNP3DRAMQzcvsTmh-304" value="Yes" style="edgeLabel;html=1;align=center;verticalAlign=middle;resizable=0;points=[];" connectable="0" vertex="1" parent="N_dmbNP3DRAMQzcvsTmh-299">
          <mxGeometry x="-0.0865" y="1" relative="1" as="geometry">
            <mxPoint as="offset" />
          </mxGeometry>
        </mxCell>
        <mxCell id="N_dmbNP3DRAMQzcvsTmh-300" value="" style="endArrow=classic;html=1;rounded=0;" edge="1" parent="1" source="N_dmbNP3DRAMQzcvsTmh-298" target="N_dmbNP3DRAMQzcvsTmh-306">
          <mxGeometry width="50" height="50" relative="1" as="geometry">
            <mxPoint x="310" y="2500" as="sourcePoint" />
            <mxPoint x="660" y="2210" as="targetPoint" />
          </mxGeometry>
        </mxCell>
        <mxCell id="N_dmbNP3DRAMQzcvsTmh-303" value="No" style="edgeLabel;html=1;align=center;verticalAlign=middle;resizable=0;points=[];" connectable="0" vertex="1" parent="N_dmbNP3DRAMQzcvsTmh-300">
          <mxGeometry x="-0.2517" y="-3" relative="1" as="geometry">
            <mxPoint x="-1" as="offset" />
          </mxGeometry>
        </mxCell>
        <mxCell id="N_dmbNP3DRAMQzcvsTmh-302" value="Increment score" style="ellipse;shape=umlControl;whiteSpace=wrap;html=1;" vertex="1" parent="1">
          <mxGeometry x="367.5" y="2260" width="70" height="80" as="geometry" />
        </mxCell>
        <mxCell id="N_dmbNP3DRAMQzcvsTmh-305" value="" style="endArrow=classic;html=1;rounded=0;" edge="1" parent="1" source="N_dmbNP3DRAMQzcvsTmh-302" target="N_dmbNP3DRAMQzcvsTmh-272">
          <mxGeometry width="50" height="50" relative="1" as="geometry">
            <mxPoint x="310" y="2500" as="sourcePoint" />
            <mxPoint x="360" y="2450" as="targetPoint" />
          </mxGeometry>
        </mxCell>
        <mxCell id="N_dmbNP3DRAMQzcvsTmh-306" value="Leave score as is" style="ellipse;shape=umlControl;whiteSpace=wrap;html=1;fillColor=#FF6666;" vertex="1" parent="1">
          <mxGeometry x="500" y="2120" width="78.75" height="90" as="geometry" />
        </mxCell>
        <mxCell id="N_dmbNP3DRAMQzcvsTmh-307" value="" style="endArrow=classic;html=1;rounded=0;" edge="1" parent="1" source="N_dmbNP3DRAMQzcvsTmh-306" target="N_dmbNP3DRAMQzcvsTmh-272">
          <mxGeometry width="50" height="50" relative="1" as="geometry">
            <mxPoint x="310" y="2470" as="sourcePoint" />
            <mxPoint x="360" y="2420" as="targetPoint" />
          </mxGeometry>
        </mxCell>
        <mxCell id="N_dmbNP3DRAMQzcvsTmh-308" value="" style="endArrow=classic;html=1;rounded=0;exitX=0.5;exitY=0.5;exitDx=0;exitDy=0;exitPerimeter=0;" edge="1" parent="1" source="N_dmbNP3DRAMQzcvsTmh-261" target="N_dmbNP3DRAMQzcvsTmh-296">
          <mxGeometry width="50" height="50" relative="1" as="geometry">
            <mxPoint x="310" y="2500" as="sourcePoint" />
            <mxPoint x="360" y="2450" as="targetPoint" />
          </mxGeometry>
        </mxCell>
      </root>
    </mxGraphModel>
  </diagram>
</mxfile>
